<svg xmlns="http://www.w3.org/2000/svg" xmlns:xlink="http://www.w3.org/1999/xlink" version="1.1" x="0px" y="0px" viewBox="0 0 100 100" enable-background="new 0 0 100 100" xml:space="preserve"><path d="M87.461,45H69.186L53.625,11.577c-0.629-1.349-2.057-2.08-3.459-1.87c-1.404-0.212-2.833,0.532-3.463,1.883L31.141,45H13.54  c-1.807,0-3.076,1.413-2.821,3.202l5.642,39.517C16.616,89.51,18.303,91,20.11,91h60.781c1.807,0,3.494-1.518,3.75-3.307  l5.641-39.465C90.537,46.439,89.268,45,87.461,45z M37,79.396c0,2.269-2.231,4.105-4.5,4.105S28,81.664,28,79.396V59.684  c0-2.269,2.231-4.106,4.5-4.106s4.5,1.839,4.5,4.106V79.396z M55,79.396c0,2.269-2.23,4.105-4.5,4.105c-2.268,0-4.5-1.838-4.5-4.105  V59.684c0-2.269,2.232-4.106,4.5-4.106c2.27,0,4.5,1.839,4.5,4.106V79.396z M38.39,45l11.773-25.248L61.938,45H38.39z M73,79.396  c0,2.269-2.232,4.105-4.5,4.105S64,81.664,64,79.396V59.684c0-2.269,2.232-4.106,4.5-4.106s4.5,1.839,4.5,4.106V79.396z"></path></svg>